# xmcd
#
# Track frame offsets: 
#        150
#        15557
#        34525
#        52342
#        67485
#        80427
#        97857
#        115197
#        132315
#        149140
#
# Disc length: 2231 seconds
#
# Revision: 2
# Processed by: cddbd v1.4PL0 Copyright (c) Steve Scherf et al.
# Submitted via: ExactAudioCopy v0.90b4
#
DISCID=9108b50a
DTITLE=George Fox - George Fox
DYEAR=1900
DGENRE=Country
TTITLE0=Angelina
TTITLE1=R.B.J.
TTITLE2=Goldmine
TTITLE3=Stateside
TTITLE4=Lovesick Blues
TTITLE5=Hey Johnny
TTITLE6=I've Been Everywhere
TTITLE7=Long Distance
TTITLE8=Heartwreck
TTITLE9=Life Of The Party
EXTD=
EXTT0=(George Fox) Trail of the Fox/Home Cooked Music (CAPAC)
EXTT1=(George Fox) Trail of the Fox/Home Cooked Music (CAPAC)
EXTT2=(George Fox) Trail of the Fox/Home Cooked Music (CAPAC)
EXTT3=(George Fox) Trail of the Fox/Home Cooked Music (CAPAC)
EXTT4=(Friend/Mills) Mills Music Inc. Renewed.
EXTT5=(George Fox) Trail of the Fox/Home Cooked Music (CAPAC)
EXTT6=(Geof Mack) with additional lyics by George Fox. Johnny Devlin M
EXTT6=usic Pty. Ltd.
EXTT7=(George Fox) Trail of the Fox/Home Cooked Music (CAPAC)
EXTT8=(George Fox) Trail of the Fox/Home Cooked Music (CAPAC)
EXTT9=(George Fox) Trail of the Fox/Home Cooked Music (CAPAC)
PLAYORDER=
